<svg xmlns="http://www.w3.org/2000/svg" width="117.82" height="45.19" viewBox="0 0 31.17 11.96"><defs><clipPath id="a" clipPathUnits="userSpaceOnUse"><path d="M-91.75-19.11h102v47.5h-102Z"/></clipPath><clipPath id="b" clipPathUnits="userSpaceOnUse"><path d="M-15.1-33.98h102v47.5h-102Z"/></clipPath><clipPath id="c" clipPathUnits="userSpaceOnUse"><path d="M-6.82-19.33h102v47.51h-102Z"/></clipPath><clipPath id="d" clipPathUnits="userSpaceOnUse"><path d="M-24.54-24.54h102v47.51h-102Z"/></clipPath><clipPath id="e" clipPathUnits="userSpaceOnUse"><path d="M-37.92-40.7H64.1V6.83h-102Z"/></clipPath><clipPath id="f" clipPathUnits="userSpaceOnUse"><path d="M-39.72-34.02h102v47.5h-102Z"/></clipPath><clipPath id="g" clipPathUnits="userSpaceOnUse"><path d="M-93.55-11.26H8.46v47.51h-102Z"/></clipPath><clipPath id="h" clipPathUnits="userSpaceOnUse"><path d="M-46.28-9.48H55.73v47.51h-102Z"/></clipPath><clipPath id="i" clipPathUnits="userSpaceOnUse"><path d="M-51.11-11.26h102v47.51h-102Z"/></clipPath><clipPath id="j" clipPathUnits="userSpaceOnUse"><path d="M-48.6-10.35H53.41v47.5h-102Z"/></clipPath><clipPath id="k" clipPathUnits="userSpaceOnUse"><path d="M-84.56-38.07h102v47.5h-102Z"/></clipPath></defs><path d="M0 0h2.08c-.02.43-.36.84-.99.84C.52.84.14.54 0 0m1.3-2.94c-1.56 0-2.46 1.07-2.46 2.34 0 1.34.84 2.34 2.27 2.34 1.23 0 2.04-.82 2.04-1.92 0-.25-.04-.47-.07-.61H-.05c.1-.81.62-1.17 1.35-1.17.5 0 .91.23 1.16.57l.79-.63a2.36 2.36 0 0 0-1.95-.92Zm-4.26 4.61h1.1V-.74c0-1.36-.8-2.2-2.1-2.2-1.32 0-2.12.84-2.12 2.2v2.41h1.1V-.79c0-.7.36-1.12 1.02-1.12s1 .42 1 1.12zM-9.34-1.9c.52 0 .95.22 1.26.68V.03c-.3.45-.74.68-1.26.68-.75 0-1.25-.56-1.25-1.31 0-.76.5-1.31 1.25-1.31m-.16 3.65c.61 0 1.07-.2 1.42-.58v.51h1.1v-5.5h-1.1v1.47c-.35-.37-.8-.58-1.42-.58-1.38 0-2.22 1.08-2.22 2.34 0 1.26.84 2.34 2.22 2.34zm-4.06-.07h1.1v-4.54h-1.1zm-.07.95c0 .34.29.62.63.62s.63-.28.63-.62c0-.33-.3-.63-.63-.63a.64.64 0 0 0-.63.63m-5.1-.95h1.1v-.49c.33.32.76.56 1.37.56 1 0 1.77-.68 1.77-2.02v-2.6h-1.1v2.56c0 .64-.35 1.03-.94 1.03s-.9-.39-1.1-.7v-2.88h-1.1zM-20.58-.6c0 .76-.54 1.31-1.24 1.31S-23.06.15-23.06-.6s.52-1.31 1.23-1.31c.72 0 1.24.56 1.24 1.3m1.13 0c0-1.28-.96-2.33-2.36-2.33A2.3 2.3 0 0 0-24.2-.6c0 1.29.97 2.34 2.38 2.34A2.3 2.3 0 0 0-19.46-.6m-7.86 2.27h1.1v-.5c.3.32.68.55 1.21.55.15 0 .3-.02.4-.05V.59c-.14.04-.3.06-.5.06-.5 0-.9-.24-1.12-.61v-2.91h-1.09zM-30.54.7h-.85v.98h.85v.95h1.1v-.95h1.42V.7h-1.42v-1.9c0-.55.3-.75.79-.75.3 0 .5.05.64.1v-.94a1.9 1.9 0 0 0-.82-.15c-1.15 0-1.71.62-1.71 1.74v1.9Zm-1.92-2.06.86-.65a2.36 2.36 0 0 0-1.93-.92c-1.53 0-2.41 1.08-2.41 2.34 0 1.26.88 2.34 2.41 2.34.83 0 1.5-.37 1.93-.92l-.86-.65c-.22.31-.6.54-1.08.54-.73 0-1.27-.56-1.27-1.31 0-.76.54-1.31 1.29-1.31.46 0 .84.22 1.06.54zM-39.7 0h2.08c-.02.43-.37.84-1 .84-.56 0-.94-.3-1.08-.84m1.3-2.94c-1.56 0-2.47 1.07-2.47 2.34 0 1.34.84 2.34 2.28 2.34 1.23 0 2.04-.82 2.04-1.92 0-.25-.04-.47-.07-.61h-3.13c.1-.81.62-1.17 1.34-1.17.5 0 .92.23 1.17.57l.78-.63a2.36 2.36 0 0 0-1.94-.92zm-4.32 5.55h1.1v-5.48h-1.1zm-3.33-.68.67 1h.99l-.78-1zM-46.7 0h2.08c-.02.43-.36.84-.99.84-.57 0-.95-.3-1.09-.84m1.3-2.94c-1.56 0-2.46 1.07-2.46 2.34 0 1.34.84 2.34 2.27 2.34 1.23 0 2.04-.82 2.04-1.92 0-.25-.04-.47-.07-.61h-3.13c.1-.81.62-1.17 1.35-1.17.5 0 .91.23 1.16.57l.79-.63a2.36 2.36 0 0 0-1.95-.92zM-6.39 8.74h1.09v-.5c.33.33.76.56 1.37.56 1 0 1.77-.67 1.77-2.01v-2.6h-1.1v2.55c0 .64-.36 1.04-.94 1.04-.6 0-.9-.4-1.1-.7V4.18h-1.1zm-1.87-2.27c0 .75-.54 1.3-1.24 1.3s-1.23-.55-1.23-1.3.51-1.31 1.23-1.31 1.24.56 1.24 1.3m1.13 0c0-1.29-.96-2.33-2.36-2.33a2.3 2.3 0 0 0-2.38 2.34c0 1.29.97 2.33 2.38 2.33a2.3 2.3 0 0 0 2.36-2.33m-6.57 2.27h1.1V4.19h-1.1zm-.07.95c0 .33.29.62.63.62s.62-.29.62-.62c0-.34-.29-.63-.62-.63a.64.64 0 0 0-.63.63m-3.15-1.93h-.85v.98h.85v.94h1.1v-.94h1.42v-.98h-1.42v-1.9c0-.55.3-.75.79-.75.3 0 .5.05.64.1v-.95a1.9 1.9 0 0 0-.82-.14c-1.15 0-1.71.62-1.71 1.73zm-3.64-2.77c.53 0 .93.26 1.17.64v.66l-1.13-.2c-.49-.08-.69-.28-.69-.59 0-.3.25-.51.65-.51zm-1.74.47c0 .69.53 1.19 1.5 1.35l1.4.24c0 .49-.38.8-.91.8-.46 0-.8-.22-1.05-.56l-.81.62c.4.55 1.07.9 1.9.9 1.29 0 1.96-.77 1.96-1.78V4.2h-1.08v.53c-.3-.37-.86-.6-1.4-.6-.89 0-1.5.52-1.5 1.34zm-3.2 3.28h1.1v-.5c.3.32.69.55 1.22.55.14 0 .29-.02.4-.06V7.66c-.15.03-.3.06-.5.06-.5 0-.92-.24-1.13-.61V4.19h-1.09zm-2.01 0h1.1V6.32c0-1.35-.8-2.2-2.1-2.2-1.32 0-2.12.85-2.12 2.2v2.42h1.1V6.27c0-.69.36-1.11 1.02-1.11s1 .42 1 1.11zm-6.27-.98h-.85v.98h.85v.94h1.1v-.94h1.42v-.98h-1.42v-1.9c0-.55.3-.75.78-.75.3 0 .5.05.64.1v-.95a1.9 1.9 0 0 0-.81-.14c-1.16 0-1.71.62-1.71 1.73zm-1.93-2.06.86-.65a2.36 2.36 0 0 0-1.92-.92c-1.53 0-2.42 1.08-2.42 2.34 0 1.25.89 2.33 2.42 2.33.82 0 1.5-.36 1.92-.91l-.86-.66c-.22.32-.59.55-1.07.55-.73 0-1.27-.56-1.27-1.31 0-.76.54-1.32 1.28-1.32.47 0 .84.23 1.06.55zm-6.43-.71c.53 0 .93.26 1.16.64v.66l-1.12-.2c-.49-.08-.69-.28-.69-.59 0-.3.24-.51.65-.51zm-1.74.47c0 .69.53 1.19 1.5 1.35l1.4.24c0 .49-.38.8-.91.8-.46 0-.81-.22-1.06-.56l-.8.62c.4.55 1.07.9 1.89.9 1.3 0 1.97-.77 1.97-1.78V4.2h-1.09v.53c-.3-.37-.85-.6-1.38-.6-.9 0-1.52.52-1.52 1.34zm-3.6 3.9h3.07v-.92h-1.96V7.27h1.66v-.92h-1.66V4.2h-1.11v5.17z" clip-path="url(#a)" style="fill:#2c217e;fill-opacity:1;fill-rule:nonzero;stroke:none" transform="matrix(.353 0 0 -.353 29.96 7.62)"/><path d="m0 0 3.93 3.93h9.45V-5.5L9.44-9.44V0Z" clip-path="url(#b)" style="fill:#6795cf;fill-opacity:1;fill-rule:nonzero;stroke:none" transform="matrix(.353 0 0 -.353 2.92 2.37)"/><path d="m0 0 5.2 5.2h12.52V-7.3l-5.21-5.21V0Z" clip-path="url(#c)" style="fill:#aaceee;fill-opacity:1;fill-rule:nonzero;stroke:none" transform="matrix(.353 0 0 -.353 0 7.54)"/><path d="m0 0 3.93 3.93h9.45V-5.5L9.44-9.44V0Z" clip-path="url(#d)" style="fill:#2c217e;fill-opacity:1;fill-rule:nonzero;stroke:none" transform="matrix(.353 0 0 -.353 6.25 5.7)"/><path d="M0 0h-6.67l-2.77-2.78h6.66v-6.67L0-6.67Z" clip-path="url(#e)" style="fill:#e3000b;fill-opacity:1;fill-rule:nonzero;stroke:none" transform="matrix(.353 0 0 -.353 10.97 0)"/><path d="M0 0h55.47v6.69L0 6.67Z" clip-path="url(#f)" style="fill:#e3000b;fill-opacity:1;fill-rule:nonzero;stroke:none" transform="matrix(.353 0 0 -.353 11.6 2.36)"/><path d="M0 0h1.45v-.42H.51v-.59h.8v-.42H.5v-.64h.94v-.42H0Zm-1.91-1.8c.15-.2.35-.31.55-.31.2 0 .32.1.32.28 0 .46-1.13.34-1.13 1.18 0 .4.32.72.8.72.37 0 .66-.17.87-.42l-.37-.33c-.14.19-.3.31-.5.31-.17 0-.3-.11-.3-.26 0-.45 1.14-.33 1.14-1.18 0-.47-.37-.75-.83-.75-.42 0-.7.15-.92.42zM-3.26 0h.5v-2.49h-.5zm-1.31-1.41-.34.93-.35-.93zM-5.25 0h.67l.94-2.49h-.54l-.24.65h-1l-.23-.65h-.54zm-1.44-1.75.4-.3c-.2-.27-.5-.45-.86-.5l-.3-.51h-.46l.32.52a1.3 1.3 0 0 0-1.08 1.3c0 .7.54 1.31 1.33 1.31.45 0 .82-.2 1.04-.5l-.4-.31a.78.78 0 0 1-.64.34c-.47 0-.8-.37-.8-.85 0-.47.33-.84.8-.84.28 0 .5.14.65.34M-11.42 0h.65l1.11-1.8V0h.5v-2.49h-.64l-1.11 1.8v-1.8h-.5zm-1.31-1.41-.34.93-.34-.93zM-13.4 0h.66l.94-2.49h-.54l-.23.65h-1l-.24-.65h-.54zm-2.58-.42v-.64h.29c.21 0 .33.12.33.32s-.12.32-.33.32zm-.5.42h.76c.55 0 .88-.28.88-.74 0-.3-.14-.53-.4-.65l.78-1.1h-.6l-.66 1h-.26v-1h-.5zm-1.9 0h1.45v-.42h-.94v-.59h.8v-.42h-.8v-1.06h-.5zm-2.96 0h1.45v-.42h-.95v-.59h.8v-.42h-.8v-.64h.95v-.42h-1.45zm-1.13 0h.5v-1.51c0-.66-.38-1.05-1-1.05-.63 0-1.01.4-1.01 1.05V0h.5v-1.56c0-.33.19-.53.5-.53.32 0 .5.2.5.53zm-2.47-1.24c0 .47-.34.84-.8.84-.47 0-.8-.37-.8-.84 0-.48.33-.85.8-.85.46 0 .8.37.8.85m.7-1.42a.5.5 0 0 1 .17.03v-.43a.65.65 0 0 0-.26-.05c-.28 0-.53.12-.78.33l-.3.26c-.1-.03-.21-.04-.33-.04-.79 0-1.33.6-1.33 1.32 0 .7.54 1.31 1.33 1.31.78 0 1.32-.6 1.32-1.31 0-.42-.19-.8-.5-1.04l.15-.15c.2-.17.37-.23.53-.23M-28.06 0h.5v-2.49h-.5zm-1.9 0h.51v-2.03h.95v-.46h-1.45zm-1.72-1.4v-.67h.31c.24 0 .38.12.38.33 0 .22-.14.34-.38.34zm0 .98v-.56h.24c.2 0 .3.1.3.28 0 .18-.1.28-.3.28zm-.5.42h.73c.52 0 .84-.26.84-.68 0-.2-.1-.37-.27-.49.26-.11.41-.33.41-.59 0-.45-.35-.73-.93-.73h-.78zm-1.13 0h.5v-1.51c0-.66-.38-1.05-1-1.05-.63 0-1.01.4-1.01 1.05V0h.5v-1.56c0-.33.19-.53.5-.53.32 0 .5.2.5.53zm-3.09-.42v-.64h.34c.22 0 .34.12.34.32s-.12.32-.34.32zm-.5.42h.82c.55 0 .88-.28.88-.74 0-.46-.33-.74-.88-.74h-.32V-2.5h-.5zm-1.55.21.4.48h.52l-.46-.48zm-.49-.21h1.45v-.42h-.94v-.59h.8v-.42h-.8v-.64h.94v-.42h-1.45zm-1.84-.42v-.64h.29c.21 0 .34.12.34.32s-.13.32-.34.32zm-.5.42h.76c.55 0 .89-.28.89-.74 0-.3-.15-.53-.4-.65l.77-1.1h-.6l-.66 1h-.26v-1h-.5z" clip-path="url(#g)" style="fill:#161413;fill-opacity:1;fill-rule:nonzero;stroke:none" transform="matrix(.353 0 0 -.353 30.6 10.39)"/><path d="M0 0h.02-.04v.02L-.1 0c-.03 0-.06-.03-.1-.04l-.15-.08c0 .02.02.03.03.04.03.06.09.09.13.13v.02c.02.01.04.02.05.05 0 .01.02.03.05.04l-.02.01h-.05c0 .02.01.02.03.03h-.02l.03.03.05.01-.1.01c.02.07.06.12.12.14h.01A.05.05 0 0 0-.07.34c.03 0 .07 0 .1-.03H.03C.04.3.07.31.09.29.08.27.07.29.05.29.2.25.35.2.47.12.38.07.27.04.15.02H.11V.01L.06 0H0m-.1-.33-.05-.03-.06-.03h-.01a.24.24 0 0 1-.05-.04l-.01-.01-.01-.01-.01-.01h-.03l-.02-.02A.26.26 0 0 1-.38-.5L-.4-.53v.03h.01l.01.02.02.02v.02h.01v.02h.01v.02l.02.03-.02-.02s-.01 0 0 0v.02l.03.02.01.01.01.02c.05.04.13.04.19.07h.07l.04-.01-.12-.08M0-.37l-.01-.01c0-.02-.02-.03-.03-.03h-.01l-.02-.02H-.1a1.07 1.07 0 0 1 .06.07H0m-.22.7L-.24.32-.27.3h-.01c0 .03.02.04.03.05V.34M-.61.03l.14.25C-.4.3-.35.36-.3.4a.9.9 0 0 0 .26.2c.04.02.08.02.12 0C.06.6.03.6.01.58H0V.6C-.04.55-.1.53-.14.47-.17.42-.19.36-.25.34c-.02 0 0 .02 0 .01A1.6 1.6 0 0 1-.63.03m.72-.1H.07c.01.02.04.02.06.03.01 0 .02.02.03.01.01-.01.03 0 .04-.02C.17-.07.13-.06.1-.07m.72-.34.08.08a1.58 1.58 0 0 0 .21.2l.01.02c-.02 0-.04-.03-.06-.04v.01l.04.04v.01C1.03-.08.99-.12.94-.16H.92C.85-.17.8-.23.72-.26L.65-.29H.53L.36-.34a.4.4 0 0 1-.1-.03v-.01L.21-.4.14-.46.06-.55H.05l.01.03.01.02.02.03c.02.03.05.05.08.06 0 0-.01 0 0 0a.1.1 0 0 1 0 .03L.14-.39.11-.42H.1v.02l.01.01v.01l.01.02c0 .02.02.03.03.03l.06.03a.3.3 0 0 1-.07-.03H.12c0 .02.02.02.03.03.16.11.36.08.54.14l.04.03.07.05c.04.03.07.06.08.1v.02a.73.73 0 0 0-.21-.16C.57-.17.47-.16.36-.17h.02c0 .02.01.02.02.03h.01l.01.01h.02c-.01.03-.04 0-.06 0l.01.04h.02v.02l.21.1H.58L.6.05.74.1C.72.1.7.09.69.1l.03.01v.02c0 .02.01.01.02.02H.73C.74.19.77.2.79.2L.77.2h.01C.75.22.76.23.76.24.8.26.8.3.8.33L.8.35C.75.3.68.27.6.25H.59a.1.1 0 0 0-.08 0L.46.3a.5.5 0 0 1-.12.05 1.1 1.1 0 0 1-.36.06l.16.04C.22.48.3.5.38.5H.33L.13.47C.1.47.04.44 0 .43-.03.43-.05.4-.08.4v.01c.05.06.1.12.18.12.08.02.16 0 .25 0L.53.48C.55.49.55.45.57.45.6.44.63.45.66.43v.03h.06C.76.48.69.53.67.56L.8.48C.8.47.86.45.86.48L.75.62v.02H.73v.03C.71.67.72.7.71.7L.7.8.68.86l-.05.23c0 .09.06.16.1.24a.4.4 0 0 0 .13.15c.02.06.05.1.09.15.04.05.1.08.15.1l.12.04h-3.23V-.7H.28c.09.07.18.1.3.16.06.03.2.1.24.14" clip-path="url(#h)" style="fill:#233174;fill-opacity:1;fill-rule:nonzero;stroke:none" transform="matrix(.353 0 0 -.353 13.92 11.02)"/><path d="M0 0h-2.68l.03-.01.06-.04a.22.22 0 0 0 .1-.07c0-.02.02-.05 0-.06 0-.03 0-.07-.03-.07a.17.17 0 0 0-.1-.01h-.05a.38.38 0 0 0 .18-.12l.04-.02v-.04c.03.01.03.06.06.04.02-.01.03-.04.02-.07a.47.47 0 0 0-.06-.04v-.04A.14.14 0 0 0-2.4-.6l.04-.1c.02-.08.04-.15.03-.22 0-.04-.02-.07 0-.1 0-.04.03-.07.05-.1l.05-.08c.03-.05.08-.1.06-.15-.02-.03-.07-.03-.1-.05-.03-.02 0-.06 0-.08.03-.05-.02-.07-.05-.09 0-.01.02 0 .03-.02 0-.02.03-.03.01-.06-.02-.03-.07-.04-.04-.08.01-.04 0-.07-.01-.1-.01-.05-.05-.07-.09-.08a.2.2 0 0 0-.08 0h-.03c-.08.02-.16.04-.24.04a.3.3 0 0 1-.07-.02.46.46 0 0 1-.05-.05h-.02v-.02l-.04-.06a.44.44 0 0 1-.04-.1c-.04-.1-.02-.2 0-.21l.26-.1a.86.86 0 0 0 .11-.06H0Z" clip-path="url(#i)" style="fill:#e3000b;fill-opacity:1;fill-rule:nonzero;stroke:none" transform="matrix(.353 0 0 -.353 15.63 10.39)"/><path d="m0 0 .05-.01C.04-.05-.02-.06-.05-.1h-.01c-.02 0-.01-.03-.03-.03h-.04c.02-.03.05-.04.07-.04l.02-.01h.02V-.2c-.02-.02-.04-.01-.06-.02a.2.2 0 0 1 .1 0c.04.01 0 .06.03.08l-.01.02.03.03.02.01s-.02.01-.01.02c.03.02.05.05.04.08L.06.04h-.08L-.1.02a.33.33 0 0 1-.1-.05l.11.03H0" clip-path="url(#j)" style="fill:#9c9c9d;fill-opacity:1;fill-rule:nonzero;stroke:none" transform="matrix(.353 0 0 -.353 14.74 10.71)"/><path d="M0 0a.67.67 0 0 1-.45-.15.73.73 0 0 1-.24-.43h1.3A.58.58 0 0 1 0 0m1.16-1.7C.9-2.04.56-2.2.1-2.2c-.4 0-.73.13-.97.38a1.3 1.3 0 0 0-.36.93c0 .37.11.68.33.93.23.25.53.37.9.37.33 0 .6-.1.8-.3.2-.2.3-.46.3-.77 0-.1-.01-.2-.04-.29H-.7c.02-.26.1-.46.24-.6a.8.8 0 0 1 .58-.2c.3 0 .52.1.69.33zM-2.47.7h-.48l.5.8h.54zm-.28-.7a.67.67 0 0 1-.45-.15.73.73 0 0 1-.24-.43h1.3a.6.6 0 0 1-.17.41.58.58 0 0 1-.44.17m1.16-1.7c-.25-.33-.6-.5-1.05-.5-.4 0-.72.13-.97.38-.24.25-.36.56-.36.93s.11.68.33.93c.23.25.53.37.9.37.33 0 .6-.1.8-.3.2-.2.3-.46.3-.77 0-.1-.01-.2-.03-.29h-1.79c.02-.26.1-.46.24-.6.15-.13.34-.2.58-.2.3 0 .52.1.69.33zM-5.22.7h-.48l.5.8h.55zM-5.5 0a.67.67 0 0 1-.45-.15.73.73 0 0 1-.23-.43h1.3a.6.6 0 0 1-.18.41.58.58 0 0 1-.44.17m1.16-1.7c-.25-.33-.6-.5-1.05-.5-.4 0-.72.13-.97.38-.24.25-.36.56-.36.93s.11.68.34.93c.22.25.52.37.89.37.33 0 .6-.1.8-.3.2-.2.3-.46.3-.77 0-.1-.01-.2-.03-.29h-1.79c.02-.26.1-.46.25-.6.14-.13.33-.2.57-.2.3 0 .52.1.69.33zm-3.97-.4V.32h.5V.04c.19.22.42.32.68.32.06 0 .13 0 .2-.03v-.48c-.08.02-.17.03-.25.03a.7.7 0 0 1-.63-.37V-2.1Zm-2.18 1.32c.09-.1.2-.14.36-.14.15 0 .28.05.36.14.1.09.14.2.14.34s-.05.25-.14.34a.5.5 0 0 1-.36.13.49.49 0 0 1-.36-.13.46.46 0 0 1-.13-.34c0-.14.04-.25.13-.34m-.26-1.69c0-.13.07-.24.2-.31.12-.08.3-.12.53-.12.23 0 .42.04.55.13.14.08.2.2.2.34 0 .25-.16.37-.48.37h-.77c-.15-.12-.23-.25-.23-.4m-.47-.07c0 .23.12.43.35.6-.1.1-.16.2-.16.35 0 .18.1.34.28.47a.8.8 0 0 0-.33.67c0 .24.08.44.26.6.17.17.4.25.69.25.18 0 .33-.03.47-.1h.9V-.1h-.48c.04-.1.07-.21.07-.33a.8.8 0 0 0-.27-.6.98.98 0 0 0-.7-.26c-.08 0-.18.02-.29.04-.08-.07-.12-.14-.12-.2 0-.11.06-.17.19-.17h.65c.3 0 .53-.07.7-.2a.7.7 0 0 0 .24-.56.8.8 0 0 0-.35-.65 1.45 1.45 0 0 0-.9-.26c-.37 0-.66.07-.88.2a.63.63 0 0 0-.32.57m-2.07 1.08c0-.1.04-.18.11-.23a.45.45 0 0 1 .3-.1c.29 0 .52.13.67.38v.42l-.65-.1c-.28-.06-.43-.18-.43-.37m.31-.72a.86.86 0 0 0-.58.19.64.64 0 0 0-.23.5c0 .19.07.34.21.47.14.13.34.21.6.25l.77.13v.13c0 .14-.05.26-.15.35a.56.56 0 0 1-.38.13.71.71 0 0 1-.6-.32l-.38.28c.24.32.57.47 1 .47.31 0 .56-.08.74-.25a.87.87 0 0 0 .27-.66v-1.6h-.5v.27a1.04 1.04 0 0 0-.77-.35M-16.66 0a.67.67 0 0 1-.45-.15.73.73 0 0 1-.24-.43h1.3a.58.58 0 0 1-.61.58m1.16-1.7c-.25-.33-.6-.5-1.05-.5-.4 0-.72.13-.97.38a1.3 1.3 0 0 0-.36.93c0 .37.11.68.34.93.22.25.52.37.9.37.32 0 .58-.1.79-.3.2-.2.3-.46.3-.77 0-.1-.01-.2-.03-.29h-1.79c.02-.26.1-.46.25-.6a.8.8 0 0 1 .57-.2c.3 0 .52.1.69.33zm-6.65-.4V.32h.5V.09c.2.22.43.32.72.32a.8.8 0 0 0 .76-.43c.23.29.5.43.84.43.27 0 .48-.09.65-.26.16-.18.25-.43.25-.75v-1.5h-.5v1.48a.6.6 0 0 1-.14.42c-.1.1-.22.15-.37.15-.25 0-.45-.14-.6-.42V-2.1h-.5v1.48a.6.6 0 0 1-.14.42.48.48 0 0 1-.37.15c-.25 0-.45-.14-.6-.42V-2.1Zm-1.9 0V.32h.5V.04c.18.22.4.32.67.32.06 0 .13 0 .2-.03v-.48c-.08.02-.17.03-.25.03a.7.7 0 0 1-.63-.37V-2.1Zm-1.91.37c.22 0 .4.08.56.24.15.17.23.36.23.6 0 .23-.08.43-.23.6a.74.74 0 0 1-.56.24.75.75 0 0 1-.58-.25.84.84 0 0 1-.22-.6c0-.23.07-.43.22-.59a.76.76 0 0 1 .58-.24m0 2.14a1.28 1.28 0 0 0 1.32-1.3 1.28 1.28 0 0 0-1.33-1.3c-.38 0-.7.12-.94.37-.25.25-.37.56-.37.93A1.28 1.28 0 0 0-25.97.4m-3.2-.1h.46V.6c0 .27.08.48.24.65.16.17.38.26.65.26.2 0 .38-.05.55-.14l-.21-.41c-.1.07-.2.1-.33.1a.39.39 0 0 1-.3-.12.46.46 0 0 1-.1-.32v-.3h.8v-.44h-.8V-2.1h-.5v1.97h-.46zM-30.59 0a.67.67 0 0 1-.45-.15.73.73 0 0 1-.24-.43h1.3a.6.6 0 0 1-.17.41.58.58 0 0 1-.44.17m1.15-1.7c-.24-.33-.59-.5-1.04-.5-.4 0-.73.13-.97.38s-.36.56-.36.93.1.68.33.93c.22.25.52.37.9.37.33 0 .6-.1.8-.3.2-.2.3-.46.3-.77 0-.1-.02-.2-.04-.29h-1.78c.01-.26.1-.46.24-.6a.8.8 0 0 1 .58-.2c.3 0 .52.1.68.33zm-4 .44v1.13h-.46v.45h.46v.6h.5v-.6h.8v-.45h-.8v-1.13c0-.29.14-.43.44-.43a1 1 0 0 1 .36.05v-.44a1.14 1.14 0 0 0-.44-.07c-.58 0-.86.3-.86.89m-2.47-.2c0-.09.03-.17.1-.22a.45.45 0 0 1 .3-.1c.3 0 .52.13.68.38v.42l-.66-.1c-.28-.06-.42-.18-.42-.37zm.3-.71a.86.86 0 0 0-.58.19.64.64 0 0 0-.22.5c0 .19.07.34.2.47.14.13.34.21.6.25l.78.13v.13c0 .14-.05.26-.15.35a.56.56 0 0 1-.39.13.71.71 0 0 1-.6-.32l-.38.28c.24.32.57.47 1 .47.32 0 .57-.08.74-.25a.87.87 0 0 0 .27-.66v-1.6h-.5v.27a1.04 1.04 0 0 0-.77-.35zm-.3.72c0-.1.03-.18.1-.23a.45.45 0 0 1 .3-.1c.3 0 .52.13.68.38v.42l-.66-.1c-.28-.06-.42-.18-.42-.37m.3-.72a.86.86 0 0 0-.58.19.64.64 0 0 0-.22.5c0 .19.07.34.2.47.14.13.34.21.6.25l.78.13v.13c0 .14-.05.26-.15.35a.56.56 0 0 1-.39.13.71.71 0 0 1-.6-.32l-.38.28c.24.32.57.47 1 .47.32 0 .57-.08.74-.25a.87.87 0 0 0 .27-.66v-1.6h-.5v.27a1.04 1.04 0 0 0-.77-.35m-1.95 3.68h.5v-3.6h-.5zm-1.63-.7h-.5V-.23h.5c.17 0 .3.05.4.14.1.1.14.22.14.38 0 .15-.04.27-.14.36a.57.57 0 0 1-.4.13m-1.05-2.9v3.37h1.03c.35 0 .63-.09.83-.26.2-.18.3-.41.3-.71s-.1-.54-.3-.71c-.2-.17-.48-.26-.83-.26h-.49V-2.1Z" clip-path="url(#k)" style="fill:#fff;fill-opacity:1;fill-rule:nonzero;stroke:none" transform="matrix(.353 0 0 -.353 27.42 .93)"/></svg>